<svg version="1.1" xmlns="http://www.w3.org/2000/svg" style="display: block;" viewBox="272 106.667 1601.333 1772" width="1601.333" height="1772" preserveAspectRatio="none">
<path transform="translate(0,0)" fill="rgb(66,38,8)" d="M 890.523 751.563 C 916.382 749.273 929.192 750.082 925.001 780.346 C 845.502 784.149 765.366 792.796 687.993 811.829 C 628.79 826.393 529.797 857.353 497.448 911.761 C 489.241 925.565 486.261 941.683 490.305 957.408 C 499.495 993.136 536.038 1019.87 566.211 1037.45 C 617.812 1067.51 676.993 1086.76 734.758 1100.84 C 915.182 1144.82 1125.67 1145.89 1305.48 1098.8 C 1374.11 1080.83 1485.84 1041.14 1522.81 976.94 C 1531.54 961.772 1535.6 944.252 1530.77 927.093 C 1508.37 847.6 1332.05 807.957 1261.04 796.573 C 1249.02 794.646 1185.47 787.397 1179.35 783.97 C 1177.88 778.387 1185.76 762.014 1188.28 755.675 L 1189.42 755.688 C 1206.3 756.027 1236.17 760.027 1254.96 762.676 C 1351.15 776.233 1478.95 800.39 1552.07 869.416 C 1586.27 901.7 1583.84 943.947 1582.97 986.663 C 1590.82 984.342 1600.37 980.189 1608.4 977.401 C 1626.82 970.924 1646.08 967.101 1665.58 966.05 C 1764.86 961.644 1833.88 1036.47 1837.34 1133.47 C 1840.21 1213.98 1804.75 1283.1 1751.28 1340.87 C 1722.87 1372.36 1684.25 1397.53 1648.42 1419.49 C 1687.67 1443.84 1727.9 1473.45 1743.43 1518.99 C 1753.51 1548.59 1750.45 1579.55 1736.63 1607.43 C 1695.05 1691.27 1562.89 1747.42 1478.92 1775.75 C 1183.27 1875.53 753.741 1869.42 472.362 1729.57 C 414.558 1700.84 333.987 1652.16 312.79 1588.06 C 303.358 1559.53 306.141 1529.49 319.678 1502.78 C 356.891 1429.34 457.985 1389.79 531.827 1365.81 C 475.822 1261.13 448.324 1132.36 440.596 1014.89 C 437.485 967.593 432.755 911.158 467.551 875.157 C 559.29 780.244 767.894 759.117 890.523 751.563 z M 1501.82 1334.76 C 1522.91 1336.61 1541.62 1334.5 1562.23 1329.78 C 1623.44 1314.91 1677.5 1280.31 1711.1 1225.83 C 1734.07 1188.58 1747.16 1127.2 1701.99 1100.02 C 1691.84 1093.91 1677.77 1090.87 1665.93 1091.42 C 1629.62 1094.22 1604.22 1111.75 1580.4 1138.48 C 1561.55 1159.64 1557.31 1172.5 1550.83 1199.25 C 1539.62 1245.51 1521.18 1291.46 1501.82 1334.76 z"></path>
<path transform="translate(0,0)" fill="rgb(255,255,255)" d="M 478.289 1007.68 C 482.326 1010.28 496.207 1025.02 500.988 1029.37 C 519.67 1046.38 543.519 1062.56 565.583 1074.82 C 706.248 1152.98 892.447 1176.27 1051.19 1171.94 C 1194.91 1168.02 1369.45 1138 1490.17 1054.13 C 1510.52 1039.99 1526.64 1024.34 1543.54 1006.67 C 1538.72 1135.92 1503.69 1262.24 1441.26 1375.52 C 1354.85 1529.01 1211.83 1633.24 1033.13 1641.16 C 906.913 1647.85 783.41 1602.87 691.06 1516.57 C 553.266 1390.04 485.894 1190.95 478.289 1007.68 z"></path>
<path transform="translate(0,0)" fill="rgb(255,255,255)" d="M 545.092 1395.11 C 546.564 1395.03 548.308 1394.92 549.237 1396.44 C 593.649 1469 642.47 1523.99 709.867 1577.05 L 709.846 1579.1 C 709.682 1598.96 717.164 1614.84 731.714 1628.36 C 799.408 1691.24 925.041 1709.27 1013.71 1709.13 C 1100.12 1708.99 1224.4 1692.29 1289.7 1629.97 C 1306.13 1614.29 1312.29 1598.9 1312.13 1576.65 C 1341.06 1553.79 1368.16 1529.62 1392.41 1501.77 C 1398.91 1494.32 1405.27 1486.63 1412.08 1479.47 C 1425.9 1478.3 1440.49 1478.05 1454.69 1476.9 C 1486.57 1474.47 1518.14 1468.97 1548.96 1460.45 C 1561.33 1457.01 1602.44 1442.08 1616.1 1439.36 C 1620.64 1438.45 1635.76 1448.29 1640.49 1451.53 C 1731.35 1513.71 1728.67 1587 1643.53 1651.82 C 1597.66 1685.27 1532.98 1713.16 1478.11 1729.78 C 1229.4 1805.12 938.083 1811.74 684.697 1756.23 C 610.752 1739.05 537.758 1717.8 470.264 1682.61 C 251.284 1568.43 369.636 1447.84 545.092 1395.11 z"></path>
<path transform="translate(0,0)" fill="rgb(255,255,255)" d="M 1660.68 997.398 C 1665.5 996.525 1679.9 996.567 1684.89 996.907 C 1718.16 999.251 1749.1 1014.85 1770.78 1040.2 C 1798.85 1072.68 1808.98 1116.2 1805.49 1158.32 C 1799.35 1232.39 1756.14 1298.01 1700.61 1345.23 C 1640.94 1395.27 1568.48 1427.66 1491.4 1438.75 C 1476.16 1440.96 1454.55 1443.39 1439.48 1442.16 C 1449.81 1424.43 1462.29 1407.56 1473.2 1388.5 C 1476.42 1382.86 1479.68 1377.25 1482.98 1371.67 C 1496.35 1369.3 1518.7 1369.65 1534.07 1367.95 C 1588.11 1362.3 1639.4 1341.27 1681.85 1307.34 C 1739.97 1260.7 1797.26 1166.74 1743.14 1093.62 C 1729.36 1075 1703.35 1063.24 1680.37 1060.98 C 1636.87 1056.7 1604.17 1074.34 1571.21 1100.97 C 1573.6 1079.79 1576.53 1048.36 1580.18 1027.95 C 1598.48 1011.03 1636.17 1000.06 1660.68 997.398 z"></path>
<path transform="translate(0,0)" fill="rgb(66,38,8)" d="M 950.948 918.539 C 977.28 902.694 1018.91 881.308 1047.49 867.958 C 1051.13 866.256 1080.8 867.629 1087.82 867.946 C 1166.22 871.492 1244.68 880.281 1321.5 898.877 C 1364.5 909.285 1445.25 934.016 1472.87 971.679 C 1475.8 975.682 1477.63 981.854 1476.22 986.889 C 1472.09 1001.61 1447.53 1015.26 1434.94 1021.99 C 1386.93 1047.65 1332.19 1065.48 1279.03 1077.39 C 1089.99 1119.73 877.853 1114.11 691.298 1060.58 C 656.277 1050.53 568.31 1021.28 543.04 989.905 C 541.16 987.571 540.383 981.502 541.446 978.309 C 547.423 960.363 579.564 942.654 595.473 935.296 C 677.649 897.288 774.347 882.326 863.915 875.061 C 873.233 874.305 892.135 872.636 900.728 874.417 C 902.021 874.685 902.409 875.891 903.249 877.185 C 903.68 884.215 897.516 896.212 894.981 903.569 C 885.974 929.708 888.05 961.337 908.466 981.766 C 915.622 990.051 924.921 996.302 934.388 1001.6 C 926.187 988.348 921.109 975.111 924.043 959.548 C 926.916 945.641 935.166 929.403 947.493 921.725 C 949.12 920.711 949.782 920.053 950.948 918.539 z"></path>
<path transform="translate(0,0)" fill="rgb(255,255,255)" d="M 1002.44 141.55 C 1037.59 168.742 1063.07 198.065 1071.09 242.38 C 1085.13 319.909 1024.37 371.389 966.215 409.157 C 949.559 419.973 924.65 440.159 914.295 456.68 C 859.43 544.212 968.704 611.046 1015.13 670.934 C 1073.33 745.515 1053.82 823.237 985.337 881.805 C 978.382 887.753 954.635 910.072 949.651 917.368 L 950.948 918.539 C 949.782 920.053 949.12 920.711 947.493 921.725 C 935.166 929.403 926.916 945.641 924.043 959.548 C 921.109 975.111 926.187 988.348 934.388 1001.6 C 924.921 996.302 915.622 990.051 908.466 981.766 C 904.34 970.978 901.063 964.069 899.98 952.19 C 896.699 916.229 924.027 887.965 942.517 860.083 C 953.005 844.266 962.171 828.853 968.26 810.685 C 973.085 796.054 974.982 780.616 973.843 765.252 C 969.49 698.846 902.984 665.279 857.443 627.505 C 756.972 544.167 760.826 442.752 869.847 371.389 C 927.412 333.709 1018.97 298.937 1025.34 221.724 C 1027.91 190.493 1015.98 168.486 1002.44 141.55 z"></path>
<path transform="translate(0,0)" fill="rgb(255,255,255)" d="M 1171.8 218.487 C 1174.61 219.843 1175.63 220.626 1178.09 222.509 C 1214.9 250.743 1241.74 295.938 1247.56 341.9 C 1255.36 403.55 1220.84 450.6 1170.87 482.386 C 1151.81 494.511 1120.59 512.824 1107.66 530.801 C 1058.71 598.825 1149.17 648.295 1155.43 712.985 C 1158.11 740.613 1150.41 763.177 1134.39 785.645 C 1128.14 794.414 1099.91 820.397 1091.2 821.455 L 1092.25 819.499 C 1173.16 706.05 1053.03 671.156 1008.27 585.699 C 988.004 547.01 996.26 504.147 1023.61 470.672 C 1070.86 412.834 1163.96 402.726 1190.93 327.099 C 1204.79 287.902 1189.23 253.158 1171.8 218.487 z"></path>
</svg>